<svg width="46" height="36" viewBox="0 0 46 36" fill="none" xmlns="http://www.w3.org/2000/svg">
<g id="line">
<path id="Vector" d="M26.1411 7.58203C26.1411 9.64996 24.4651 11.326 22.3972 11.326C20.3292 11.3252 18.6532 13.002 18.6532 15.0699C18.6532 17.1378 16.9772 18.8145 14.9093 18.8145C12.8413 18.8131 11.1653 20.4899 11.1653 22.5585C11.1653 24.6265 9.48932 26.3024 7.42139 26.3024" stroke="#FF7010" stroke-width="1.5" stroke-miterlimit="10" stroke-linecap="round" stroke-linejoin="round"/>
<path id="Vector_2" d="M1.06249 26.9319C0.912579 27.4415 1.03104 28.0134 1.43254 28.4141L4.19879 31.1855C4.78307 31.7705 5.73148 31.7705 6.31644 31.1855L7.43303 30.058C8.11091 29.3808 9.04614 28.9618 10.0816 28.9618C12.1488 28.9626 13.8255 27.2858 13.8255 25.2179C13.8248 23.1492 15.5015 21.4732 17.5695 21.4739C19.6375 21.4739 21.3134 19.7972 21.3134 17.7292C21.3127 15.6613 22.9894 13.9853 25.0573 13.9853C27.1253 13.9853 28.8013 12.3093 28.8013 10.2421C28.8013 9.20742 29.2203 8.27068 29.8982 7.59355L31.0257 6.47621C31.6107 5.89193 31.6107 4.94352 31.0257 4.35856L28.2544 1.59299C27.8507 1.19007 27.2774 1.07161 26.767 1.22444C24.9184 1.45259 23.4815 3.01164 23.4815 4.92158C23.4823 6.99026 21.8062 8.66627 19.7376 8.66552C17.6696 8.66552 15.993 10.3423 15.9936 12.4102C15.9944 14.4781 14.3177 16.1542 12.249 16.1542C10.1818 16.1542 8.50507 17.8302 8.50507 19.8981C8.50574 21.966 6.82906 23.6428 4.76113 23.642C2.84962 23.642 1.28915 25.0811 1.06249 26.9319Z" stroke="#FF7010" stroke-width="1.5" stroke-miterlimit="10" stroke-linecap="round" stroke-linejoin="round"/>
<path id="Vector_3" d="M39.6767 10.9658C39.6767 13.0337 38.0007 14.7098 35.9328 14.7098C33.8649 14.709 32.1889 16.3858 32.1889 18.4537C32.1889 20.5216 30.5128 22.1976 28.4449 22.1976C26.377 22.1969 24.701 23.8737 24.701 25.9416C24.701 28.0095 23.025 29.6863 20.957 29.6855" stroke="#FF7010" stroke-width="1.5" stroke-miterlimit="10" stroke-linecap="round" stroke-linejoin="round"/>
<path id="Vector_4" d="M14.5981 30.3159C14.4482 30.8249 14.5667 31.3967 14.9682 31.7981L17.7344 34.5696C18.3187 35.1545 19.2671 35.1545 19.8521 34.5696L20.9687 33.442C21.6466 32.7641 22.5818 32.3458 23.6172 32.3458C25.6845 32.3458 27.3612 30.6699 27.3612 28.6019C27.3605 26.5332 29.0372 24.8572 31.1051 24.8579C33.1731 24.8579 34.849 23.1812 34.849 21.1133C34.8484 19.0453 36.5251 17.3694 38.593 17.3694C40.661 17.3694 42.3369 15.6933 42.3369 13.6254C42.3369 12.5914 42.7559 11.6547 43.4338 10.9775L44.5614 9.86021C45.1464 9.276 45.1464 8.32759 44.5614 7.74256L41.79 4.97706C41.3863 4.57414 40.8131 4.45568 40.3026 4.60776C38.4541 4.83666 37.0172 6.39489 37.0172 8.30565C37.0179 10.3743 35.3419 12.0503 33.2732 12.0496C31.2053 12.0496 29.5286 13.7263 29.5293 15.7935C29.53 17.8622 27.8533 19.5381 25.7847 19.5381C23.7174 19.5375 22.0407 21.2142 22.0407 23.2821C22.0414 25.3501 20.3647 27.0268 18.2968 27.026C16.3853 27.026 14.8248 28.4651 14.5981 30.3159Z" stroke="#FF7010" stroke-width="1.5" stroke-miterlimit="10" stroke-linecap="round" stroke-linejoin="round"/>
</g>
</svg>
