<svg xmlns="http://www.w3.org/2000/svg" width="50" height="40" viewBox="0 0 50 40" fill="none">
  <path fill-rule="evenodd" clip-rule="evenodd" d="M34.7709 5.77482L32.1733 3.05211C31.6886 2.54412 30.8689 2.57286 30.4212 3.11354L30.0663 3.54213C28.9095 4.93897 27.4095 6.01147 25.7131 6.65452C24.324 7.18111 23.1585 8.16942 22.4124 9.45346L22.3118 9.62668C21.1718 11.5887 19.4542 13.1516 17.3929 14.1024L16.3216 14.5965C14.7346 15.3285 13.378 16.4802 12.3987 17.9271L12.1218 18.3361C10.7149 20.4146 8.69324 22.0016 6.33946 22.8755C4.82526 23.4376 3.51548 24.4423 2.58059 25.7587L2.30675 26.1443C1.89878 26.7188 1.95498 27.5016 2.44084 28.0121L4.28892 29.9537C4.93361 30.6311 6.02642 30.5904 6.6187 29.8669C7.12689 29.2462 7.76362 28.7429 8.48507 28.3916L11.4053 26.9697C12.8771 26.2531 14.0317 25.0178 14.6468 23.5014C15.6698 20.9796 17.6219 18.9461 20.1008 17.82L22.0019 16.9564C23.2241 16.4012 24.2609 15.5066 24.9888 14.3791L25.2435 13.9846C26.6097 11.8683 28.7372 10.3573 31.1864 9.76395C32.4152 9.46625 33.5138 8.77722 34.3163 7.80083L34.8231 7.18426C35.1646 6.7688 35.1422 6.16398 34.7709 5.77482ZM33.6211 1.67246C32.3096 0.297813 30.0915 0.375586 28.8799 1.8387L28.525 2.26728C27.5892 3.39728 26.3757 4.26488 25.0034 4.78508C23.1848 5.47448 21.659 6.76834 20.6823 8.44936L20.5817 8.62258C19.6483 10.229 18.242 11.5086 16.5544 12.287L15.4831 12.7811C13.5649 13.6659 11.9253 15.0579 10.7416 16.8067L10.4647 17.2157C9.29143 18.949 7.60552 20.2725 5.64264 21.0012C3.7519 21.7032 2.11643 22.9577 0.949076 24.6014L0.675234 24.987C-0.286509 26.3413 -0.154026 28.1866 0.991341 29.39L2.83942 31.3317C4.31369 32.8806 6.81271 32.7875 8.16713 31.1331C8.49233 30.7359 8.89978 30.4138 9.36145 30.189L12.2817 28.7672C14.1974 27.8344 15.7002 26.2265 16.5008 24.2528C17.3314 22.2053 18.9163 20.5544 20.9288 19.6402L22.8299 18.7766C24.4012 18.0628 25.7342 16.9127 26.6699 15.4631L26.9246 15.0686C28.0128 13.3831 29.7072 12.1797 31.6579 11.7071C33.3086 11.3072 34.7842 10.3816 35.8623 9.07004L36.3691 8.45346C37.3524 7.25721 37.2879 5.5157 36.2188 4.39517L33.6211 1.67246ZM30.4002 7.90535C30.5961 8.42158 30.3363 8.99879 29.8197 9.19459L27.9133 9.91725C26.1882 10.5712 24.7409 11.7985 23.8144 13.3931C22.7778 15.1773 21.2158 16.5986 19.3413 17.4632L18.27 17.9573C16.5174 18.7657 15.0193 20.0375 13.9378 21.6353C12.4676 23.8073 10.3551 25.4657 7.89548 26.3788L5.45682 27.2842C4.93896 27.4764 4.36316 27.2127 4.17073 26.6952C3.97831 26.1776 4.24213 25.6022 4.75999 25.4099L7.19865 24.5046C9.26737 23.7366 11.0442 22.3417 12.2807 20.515C13.5666 18.6152 15.3477 17.1031 17.4315 16.1419L18.5028 15.6478C20.0036 14.9555 21.2543 13.8176 22.0843 12.389C23.2414 10.3975 25.0491 8.86457 27.2037 8.04782L29.1101 7.32516C29.6266 7.12936 30.2042 7.38912 30.4002 7.90535ZM46.9545 12.4428L44.3569 9.72008C43.8722 9.21209 43.0525 9.24083 42.6048 9.78151L42.2499 10.2101C41.0931 11.6069 39.5931 12.6794 37.8967 13.3225C36.5075 13.8491 35.3421 14.8374 34.596 16.1214L34.4954 16.2947C33.3554 18.2567 31.6378 19.8196 29.5765 20.7703L28.5052 21.2645C26.9182 21.9965 25.5616 23.1482 24.5823 24.595L24.3054 25.0041C22.8985 27.0825 20.8768 28.6696 18.5231 29.5435C17.0088 30.1056 15.6991 31.1103 14.7642 32.4267L14.4903 32.8123C14.0824 33.3868 14.1386 34.1696 14.6244 34.6801L16.4725 36.6217C17.1172 37.2991 18.21 37.2583 18.8023 36.5349C19.3105 35.9142 19.9472 35.4108 20.6687 35.0596L23.5889 33.6377C25.0607 32.9211 26.2153 31.6857 26.8304 30.1694C27.8534 27.6475 29.8055 25.614 32.2844 24.488L34.1855 23.6244C35.4077 23.0692 36.4445 22.1745 37.1724 21.0471L37.4271 20.6525C38.7933 18.5362 40.9208 17.0253 43.37 16.4319C44.5988 16.1342 45.6974 15.4452 46.4999 14.4688L47.0067 13.8522C47.3482 13.4368 47.3258 12.8319 46.9545 12.4428ZM45.8047 8.34043C44.4932 6.96578 42.2751 7.04356 41.0635 8.50667L40.7086 8.93525C39.7728 10.0652 38.5593 10.9329 37.187 11.4531C35.3684 12.1424 33.8426 13.4363 32.8659 15.1173L32.7653 15.2906C31.8319 16.8969 30.4256 18.1765 28.738 18.9549L27.6667 19.4491C25.7485 20.3338 24.1089 21.7259 22.9252 23.4746L22.6483 23.8837C21.475 25.617 19.7891 26.9405 17.8262 27.6692C15.9355 28.3711 14.3 29.6256 13.1327 31.2694L12.8588 31.655C11.8971 33.0093 12.0296 34.8546 13.1749 36.058L15.023 37.9996C16.4973 39.5486 18.9963 39.4554 20.3507 37.8011C20.6759 37.4039 21.0834 37.0818 21.545 36.857L24.4653 35.4351C26.381 34.5024 27.8838 32.8944 28.6844 30.9208C29.515 28.8733 31.0999 27.2224 33.1124 26.3082L35.0135 25.4446C36.5848 24.7308 37.9178 23.5806 38.8535 22.1311L39.1082 21.7366C40.1964 20.051 41.8908 18.8476 43.8415 18.375C45.4922 17.9751 46.9678 17.0496 48.0459 15.738L48.5527 15.1214C49.536 13.9252 49.4715 12.1837 48.4024 11.0631L45.8047 8.34043ZM42.5838 14.5728C42.7797 15.0891 42.5199 15.6663 42.0033 15.8621L40.0969 16.5847C38.3718 17.2387 36.9245 18.466 35.998 20.0606C34.9613 21.8448 33.3994 23.2661 31.5249 24.1306L30.4536 24.6248C28.701 25.4332 27.2029 26.705 26.1214 28.3028C24.6512 30.4747 22.5387 32.1332 20.0791 33.0463L17.6404 33.9517C17.1225 34.1439 16.5468 33.8802 16.3543 33.3626C16.1619 32.8451 16.4257 32.2697 16.9436 32.0774L19.3822 31.1721C21.451 30.404 23.2278 29.0092 24.4643 27.1824C25.7502 25.2827 27.5313 23.7705 29.6151 22.8094L30.6864 22.3153C32.1872 21.623 33.4379 20.4851 34.2679 19.0565C35.425 17.0649 37.2327 15.5321 39.3873 14.7153L41.2937 13.9926C41.8102 13.7968 42.3878 14.0566 42.5838 14.5728Z" fill="#FF7010"/>
</svg>