<svg width="35" height="35" viewBox="0 0 35 35" fill="none" xmlns="http://www.w3.org/2000/svg">
<g id="cheese-svgrepo-com" clip-path="url(#clip0_18802_6291)">
<g id="Group">
<g id="Group_2">
<path id="Vector" d="M27.3581 14.1836C26.46 14.1836 25.7295 14.9142 25.7295 15.8121C25.7295 16.7101 26.46 17.4406 27.3581 17.4406C28.2561 17.4406 28.9866 16.7101 28.9866 15.8121C28.9866 14.9141 28.2561 14.1836 27.3581 14.1836ZM27.3581 16.3714C27.0496 16.3714 26.7987 16.1205 26.7987 15.8121C26.7987 15.5037 27.0496 15.2528 27.3581 15.2528C27.6665 15.2528 27.9174 15.5038 27.9174 15.8121C27.9174 16.1205 27.6665 16.3714 27.3581 16.3714Z" fill="#FF7010"/>
</g>
</g>
<g id="Group_3">
<g id="Group_4">
<path id="Vector_2" d="M30.0929 22.9346C29.1949 22.9346 28.4644 23.6651 28.4644 24.5631C28.4644 25.4611 29.1949 26.1916 30.0929 26.1916C30.9909 26.1916 31.7214 25.4611 31.7214 24.5631C31.7214 23.6651 30.9909 22.9346 30.0929 22.9346ZM30.0929 25.1224C29.7845 25.1224 29.5336 24.8715 29.5336 24.5631C29.5336 24.2547 29.7845 24.0038 30.0929 24.0038C30.4012 24.0038 30.6522 24.2547 30.6522 24.5631C30.6522 24.8715 30.4012 25.1224 30.0929 25.1224Z" fill="#FF7010"/>
</g>
</g>
<g id="Group_5">
<g id="Group_6">
<path id="Vector_3" d="M2 0C0.89543 0 0 0.895431 0 2V5.52962C0 5.86022 0.297057 6.11157 0.623096 6.05685V6.05685C1.01931 5.99033 1.29869 5.95431 1.6398 5.95431C4.36413 5.95431 6.58041 8.16812 6.58041 10.8893C6.58041 13.6105 4.36276 15.8243 1.63693 15.8243C1.29637 15.8243 1.02826 15.7898 0.623096 15.7218V15.7218C0.297045 15.6671 0 15.9184 0 16.249V22.9775C0 23.3081 0.297057 23.5595 0.623096 23.5048V23.5048C0.835898 23.4691 0.954365 23.457 1.09279 23.457C2.30911 23.457 3.29854 24.4439 3.29854 25.6572C3.29854 26.8704 2.30781 27.8573 1.08999 27.8573C0.936797 27.8573 0.807734 27.8406 0.623096 27.8096V27.8096C0.29702 27.7549 0 28.0063 0 28.3369V33C0 34.1046 0.895431 35 2 35H8.79358C9.10348 35 9.34844 34.7373 9.32682 34.4282V34.4282C9.32203 34.3589 9.31759 34.3003 9.31369 34.2484C9.30193 34.0903 9.29599 34.011 9.29599 33.8901C9.29599 31.4627 11.2644 29.488 13.684 29.488C16.1037 29.488 18.0721 31.466 18.0721 33.8973C18.0721 34.0151 18.0665 34.09 18.0552 34.2392C18.0511 34.293 18.0465 34.3544 18.0414 34.4282V34.4282C18.0198 34.7373 18.2647 35 18.5746 35H25.1703C25.4655 35 25.7049 34.7606 25.7049 34.4654V34.4654C25.7049 32.9249 26.9116 31.7182 28.452 31.7182C29.9924 31.7182 31.1992 32.9249 31.1992 34.4654V34.4654C31.1992 34.7606 31.4385 35 31.7338 35H33.0996C34.1492 35 35 34.1492 35 33.0996V2C35 0.89543 34.1046 0 33 0H2ZM33.9307 32.2329C33.9307 33.1706 33.1706 33.9307 32.2329 33.9307V33.9307C31.9802 32.0526 30.4103 30.6489 28.452 30.6489C26.4938 30.6489 24.9238 32.0525 24.6712 33.9307H19.1749C19.1564 33.9307 19.1414 33.9157 19.1414 33.8972V33.8972C19.1414 30.8764 16.6933 28.4186 13.6842 28.4186C10.6751 28.4186 8.22691 30.8731 8.22691 33.89V33.89C8.22691 33.9124 8.20884 33.9307 8.18645 33.9307H3.06928C1.96471 33.9307 1.06928 33.0353 1.06928 31.9307V28.9474C1.06928 28.936 1.07855 28.9267 1.08999 28.9267V28.9267C2.89734 28.9267 4.36782 27.4601 4.36782 25.6573C4.36782 23.8545 2.89864 22.3878 1.09279 22.3878V22.3878C1.07984 22.3878 1.06928 22.3773 1.06928 22.3644V17.4335C1.06928 17.1293 1.33275 16.8936 1.637 16.8936V16.8936C4.95243 16.8936 7.64976 14.2001 7.64976 10.8893C7.64976 7.57852 4.95366 4.88517 1.6398 4.88517V4.88517C1.33399 4.88517 1.06928 4.64858 1.06928 4.34276V2.89414C1.06928 1.8863 1.8863 1.06928 2.89414 1.06928H31.9308C33.0354 1.06928 33.9308 1.96471 33.9308 3.06928L33.9307 32.2329Z" fill="#FF7010"/>
</g>
</g>
<g id="Group_7">
<g id="Group_8">
<path id="Vector_4" d="M10.9494 2.15039C10.0514 2.15039 9.3208 2.88095 9.3208 3.77892C9.3208 4.67688 10.0514 5.40744 10.9494 5.40744C11.8474 5.40744 12.5779 4.67688 12.5779 3.77892C12.5779 2.88095 11.8474 2.15039 10.9494 2.15039ZM10.9494 4.33823C10.641 4.33823 10.39 4.08729 10.39 3.77892C10.39 3.47055 10.6408 3.2196 10.9494 3.2196C11.2578 3.2196 11.5087 3.47055 11.5087 3.77892C11.5086 4.08729 11.2578 4.33823 10.9494 4.33823Z" fill="#FF7010"/>
</g>
</g>
<g id="Group_9">
<g id="Group_10">
<path id="Vector_5" d="M26.8111 3.24414C24.7067 3.24414 22.9946 4.95613 22.9946 7.06058C22.9946 9.16495 24.7067 10.8769 26.8111 10.8769C28.9154 10.8769 30.6274 9.16495 30.6274 7.06058C30.6274 4.9562 28.9154 3.24414 26.8111 3.24414ZM26.8111 9.80767C25.2962 9.80767 24.0639 8.57535 24.0639 7.06058C24.0639 5.5458 25.2962 4.31335 26.8111 4.31335C28.3258 4.31335 29.5582 5.54573 29.5582 7.06051C29.5582 8.57528 28.3258 9.80767 26.8111 9.80767Z" fill="#FF7010"/>
</g>
</g>
<g id="Group_11">
<g id="Group_12">
<path id="Vector_6" d="M9.85522 19.6533C8.35405 19.6533 7.13281 20.8746 7.13281 22.3758C7.13281 23.877 8.35405 25.0983 9.85522 25.0983C11.3565 25.0983 12.5777 23.877 12.5777 22.3758C12.5777 20.8746 11.3564 19.6533 9.85522 19.6533ZM9.85522 24.0289C8.94365 24.0289 8.20202 23.2873 8.20202 22.3757C8.20202 21.4642 8.94365 20.7225 9.85522 20.7225C10.7668 20.7225 11.5084 21.4642 11.5084 22.3757C11.5084 23.2873 10.7668 24.0289 9.85522 24.0289Z" fill="#FF7010"/>
</g>
</g>
<g id="Group_13">
<g id="Group_14">
<path id="Vector_7" d="M16.4187 11.9961C14.9175 11.9961 13.6963 13.2174 13.6963 14.7185C13.6963 16.2196 14.9175 17.441 16.4187 17.441C17.9199 17.441 19.1411 16.2197 19.1411 14.7185C19.1411 13.2173 17.9199 11.9961 16.4187 11.9961ZM16.4187 16.3717C15.5071 16.3717 14.7655 15.6301 14.7655 14.7185C14.7655 13.8069 15.5071 13.0653 16.4187 13.0653C17.3303 13.0653 18.0719 13.8069 18.0719 14.7185C18.0719 15.6301 17.3303 16.3717 16.4187 16.3717Z" fill="#FF7010"/>
</g>
</g>
<g id="Group_15">
<g id="Group_16">
<path id="Vector_8" d="M24.0766 19.1064C22.2738 19.1064 20.8071 20.5731 20.8071 22.3759C20.8071 24.1787 22.2738 25.6454 24.0766 25.6454C25.8794 25.6454 27.346 24.1787 27.346 22.3759C27.346 20.5731 25.8794 19.1064 24.0766 19.1064ZM24.0766 24.576C22.8634 24.576 21.8764 23.589 21.8764 22.3759C21.8764 21.1626 22.8633 20.1757 24.0766 20.1757C25.2898 20.1757 26.2768 21.1626 26.2768 22.3759C26.2768 23.589 25.2897 24.576 24.0766 24.576Z" fill="#FF7010"/>
</g>
</g>
<g id="Group_17">
<g id="Group_18">
<path id="Vector_9" d="M18.6066 7.62012C17.7086 7.62012 16.978 8.35067 16.978 9.24864C16.978 10.1466 17.7087 10.8772 18.6066 10.8772C19.5046 10.8772 20.2351 10.1466 20.2351 9.24864C20.2351 8.35067 19.5046 7.62012 18.6066 7.62012ZM18.6066 9.80796C18.2982 9.80796 18.0472 9.55701 18.0472 9.24864C18.0472 8.94027 18.2982 8.68933 18.6066 8.68933C18.915 8.68933 19.1659 8.94027 19.1659 9.24864C19.1659 9.55701 18.915 9.80796 18.6066 9.80796Z" fill="#FF7010"/>
</g>
</g>
</g>
<defs>
<clipPath id="clip0_18802_6291">
<rect width="35" height="35" fill="white"/>
</clipPath>
</defs>
</svg>
