<svg width="36" height="35" viewBox="0 0 36 35" fill="none" xmlns="http://www.w3.org/2000/svg">
<g id="Group">
<g id="Group_2">
<path id="Vector" d="M34.387 30.4113C33.6342 29.7686 32.4966 29.199 31.2989 28.6238L31.2848 28.6173C28.5276 27.2921 24.3608 25.2891 20.4516 20.9663C18.139 18.4092 16.3356 14.6708 15.0185 11.9401L14.9823 11.8652C14.1501 10.1486 13.4928 8.79281 12.8893 8.05639C11.4815 6.35554 8.59925 5.46424 5.65357 6.86729C4.78214 5.02914 5.29459 4.45234 6.37997 3.43851C6.99562 2.86348 6.72137 2.36843 6.34657 1.73502C6.20558 1.49682 5.83745 0.897872 5.46459 0.481229C4.80183 -0.259235 4.20956 0.0296025 3.98665 0.207862C3.71961 0.421458 2.97721 1.12694 2.87894 1.23294C1.88638 2.30303 1.40346 3.40423 1.37358 4.9546C1.34721 6.31704 1.72008 7.76509 2.43118 9.10732C1.56502 9.93515 0.564903 11.1717 0.111342 13.3754C-0.514677 16.4281 1.61882 19.7941 3.51885 22.0804C5.8967 24.9415 9.24672 27.7179 12.71 29.6977C17.075 32.1932 22.3609 33.252 25.1234 33.6611C27.1446 33.9605 29.1097 34.1113 30.7506 34.1113C32.2452 34.1113 33.4711 33.9863 34.2251 33.7342C34.7368 33.5634 35.0529 33.3245 35.1911 33.0038C35.5893 32.0791 35.3187 31.2068 34.387 30.4113ZM33.8751 32.6079C33.0379 32.9354 30.4083 33.1383 26.2874 32.6225C23.3851 32.2595 17.8383 31.2629 13.2989 28.6675C9.95413 26.7556 6.72207 24.0783 4.43159 21.322C1.98078 18.373 0.859366 15.6354 1.2739 13.6143C1.62936 11.8872 2.34592 10.879 3.06195 10.1516C3.84056 11.3342 4.81941 12.7077 5.02263 12.9918C5.13848 13.1537 5.32078 13.24 5.50572 13.24C5.62527 13.24 5.74586 13.204 5.85046 13.1292C6.11697 12.9387 6.1785 12.5681 5.98794 12.3016C5.76854 11.9948 4.63446 10.4033 3.84882 9.18572C2.99128 7.84948 2.53367 6.35519 2.56022 4.97781C2.58377 3.75987 3.16918 2.71299 3.80786 1.97077C4.45761 1.21572 4.9059 1.65293 5.10719 1.96093C5.31797 2.28352 5.59556 2.5386 5.16028 2.98618C4.53619 3.62767 4.15647 4.1403 4.03798 4.8929C3.90314 5.74921 4.19497 6.72894 5.04531 8.27473C5.04935 8.28194 5.05339 8.28915 5.05761 8.29618C5.58114 9.16076 6.96556 11.1074 7.23787 11.4889C7.42826 11.7555 7.79866 11.8174 8.06553 11.6272C8.33221 11.4368 8.39409 11.0662 8.20388 10.7996C8.05322 10.5884 6.8156 8.851 6.21718 7.91294C8.59626 6.80699 10.8765 7.48575 11.9735 8.8111C12.4865 9.43676 13.1167 10.737 13.9149 12.3831L13.9506 12.457C15.2984 15.2515 17.1445 19.0788 19.5715 21.7627C23.6372 26.2584 27.9304 28.3218 30.771 29.6872L30.7852 29.694C31.8651 30.2123 32.9729 30.7647 33.6166 31.3142C34.2637 31.8664 34.3708 32.4142 33.8751 32.6079Z" fill="#FF7010"/>
<path id="Vector_2" d="M10.4978 8.54987C9.92009 8.22553 9.20213 8.23537 8.52776 8.57677C8.23541 8.72479 8.11851 9.08184 8.26653 9.37419C8.41455 9.66655 8.77142 9.78328 9.06395 9.63543C9.37916 9.47581 9.68997 9.45717 9.91675 9.58463C10.117 9.69714 10.2393 9.91126 10.2611 10.1878C10.3102 10.8084 9.33925 12.0126 8.92595 12.4106C8.59527 12.7293 8.27901 12.989 8.00758 13.1639C6.68698 14.0281 4.30051 15.1008 3.5168 14.2987C3.48147 14.2626 3.44525 14.2088 3.44613 14.0817C3.44824 13.754 3.18419 13.4868 2.8565 13.4847C2.85527 13.4847 2.85404 13.4847 2.85263 13.4847C2.5267 13.4847 2.26142 13.7479 2.25931 14.0743C2.25668 14.4896 2.39907 14.8551 2.66945 15.1297C3.12143 15.5925 3.71528 15.7675 4.35536 15.7675C6.08082 15.7675 8.14066 14.495 8.65364 14.1594C8.98519 13.9458 9.36421 13.6366 9.74921 13.2655C9.76732 13.2481 11.5557 11.5087 11.4441 10.0948C11.391 9.42078 11.0461 8.8577 10.4978 8.54987Z" fill="#FF7010"/>
</g>
</g>
</svg>
