<svg xmlns="http://www.w3.org/2000/svg" width="37" height="37" viewBox="0 0 37 37" fill="none">
  <path fill-rule="evenodd" clip-rule="evenodd" d="M28.3241 28.733C20.5772 36.0436 10.1523 36.6333 4.94457 31.1148C-0.263129 25.5963 0.929218 15.223 8.67615 7.91236C12.8582 3.96583 17.8207 1.97793 22.3215 1.85225C22.3198 1.85409 22.3181 1.85594 22.3163 1.85779C20.2403 4.07263 21.5141 8.63968 25.1615 12.0586C28.6386 15.3178 33.0174 16.357 35.2175 14.5283C35.0857 19.2681 32.7979 24.5112 28.3241 28.733ZM31.8992 5.3681C31.9519 5.42165 32.0041 5.4758 32.0557 5.53054C33.6276 7.1962 34.6164 9.30414 35.0178 11.6366C34.9832 12.3407 34.756 12.8656 34.4305 13.2129C33.8882 13.7914 32.8371 14.1292 31.2412 13.7934C29.6765 13.4643 27.8445 12.5175 26.1873 10.9642C24.5302 9.41088 23.4671 7.6439 23.0375 6.10367C22.5993 4.53286 22.8685 3.46208 23.4107 2.88361C23.8999 2.36178 24.8031 2.03581 26.1468 2.22343C27.7999 2.60972 29.3199 3.29108 30.6265 4.2613C30.9737 4.52657 31.3174 4.81695 31.6538 5.13233C31.7371 5.2104 31.8189 5.28901 31.8992 5.3681ZM36.521 11.4548C37.5113 17.4219 34.9765 24.5177 29.3536 29.8239C21.2646 37.4574 9.84785 38.4962 3.85363 32.1443C-2.14058 25.7923 -0.442388 14.4549 7.64666 6.82142C13.3329 1.45538 20.6636 -0.651895 26.5991 0.776173C28.08 1.02902 29.7021 1.73527 31.2383 2.84715C31.851 3.27883 32.4284 3.76699 32.9647 4.31217C35.2482 6.56745 36.5225 9.26664 36.521 11.4548Z" fill="#FF7010"/>
</svg>
