<svg width="51" height="51" viewBox="0 0 51 51" fill="none" xmlns="http://www.w3.org/2000/svg">
<g id="Group 781">
<path id="Ellipse 7" d="M35.8387 36.2786C27.9207 43.7507 16.9999 44.565 11.3989 38.6297C5.79794 32.6945 7.24322 21.8391 15.1612 14.3671C23.0792 6.89504 34 6.08076 39.601 12.016C45.2019 17.9512 43.7567 28.8066 35.8387 36.2786Z" stroke="#FF7010" stroke-width="1.5"/>
<path id="Ellipse 8" d="M41.9775 20.726C41.1873 21.569 39.8223 21.8927 38.0866 21.5276C36.3666 21.1657 34.4147 20.143 32.6742 18.5116C30.9338 16.8802 29.7871 14.9985 29.3148 13.3054C28.8383 11.597 29.0732 10.2138 29.8633 9.37089C30.6535 8.52795 32.0185 8.20421 33.7541 8.56934C35.4742 8.93119 37.4261 9.95394 39.1665 11.5853C40.907 13.2167 42.0537 15.0984 42.5259 16.7916C43.0024 18.4999 42.7676 19.8831 41.9775 20.726Z" stroke="#FF7010" stroke-width="1.5"/>
</g>
</svg>
