<svg width="12" height="12" viewBox="0 0 12 12" fill="none" xmlns="http://www.w3.org/2000/svg">
<g id="Group 92">
<path id="Vector" d="M6 0C2.69172 0 0 2.69172 0 6C0 9.30828 2.69172 12 6 12C9.30828 12 12 9.30828 12 6C12 2.69172 9.30828 0 6 0ZM6 11.5862C2.91931 11.5862 0.413793 9.08069 0.413793 6C0.413793 2.91931 2.91931 0.413793 6 0.413793C9.08069 0.413793 11.5862 2.91931 11.5862 6C11.5862 9.08069 9.08069 11.5862 6 11.5862Z" fill="#A5A5A5"/>
<path id="Vector_2" d="M6.2189 6L7.95466 4.26423C7.96904 4.24986 7.98044 4.2328 7.98822 4.21402C7.996 4.19524 8 4.17511 8 4.15478C8 4.13446 7.996 4.11433 7.98822 4.09555C7.98044 4.07677 7.96904 4.05971 7.95466 4.04534C7.94029 4.03096 7.92323 4.01956 7.90445 4.01178C7.88567 4.004 7.86554 4 7.84522 4C7.82489 4 7.80476 4.004 7.78598 4.01178C7.7672 4.01956 7.75014 4.03096 7.73577 4.04534L6 5.7811L4.26423 4.04534C4.23521 4.01631 4.19584 4 4.15478 4C4.11373 4 4.07436 4.01631 4.04534 4.04534C4.01631 4.07436 4 4.11373 4 4.15478C4 4.19584 4.01631 4.23521 4.04534 4.26423L5.7811 6L4.04534 7.73577C4.01631 7.76479 4 7.80416 4 7.84522C4 7.88627 4.01631 7.92564 4.04534 7.95466C4.07436 7.98369 4.11373 8 4.15478 8C4.19584 8 4.23521 7.98369 4.26423 7.95466L6 6.2189L7.73577 7.95466C7.75014 7.96904 7.7672 7.98044 7.78598 7.98822C7.80476 7.996 7.82489 8 7.84522 8C7.86554 8 7.88567 7.996 7.90445 7.98822C7.92323 7.98044 7.94029 7.96904 7.95466 7.95466C7.96904 7.94029 7.98044 7.92323 7.98822 7.90445C7.996 7.88567 8 7.86554 8 7.84522C8 7.82489 7.996 7.80476 7.98822 7.78598C7.98044 7.7672 7.96904 7.75014 7.95466 7.73577L6.2189 6Z" fill="#A5A5A5"/>
</g>
</svg>
